<svg width="200" height="60" viewBox="0 0 200 60" fill="none" xmlns="http://www.w3.org/2000/svg">
  <rect width="200" height="60" rx="8" fill="#F5F5F5"/>
  <path d="M40 15H50C55.5228 15 60 19.4772 60 25V35C60 40.5228 55.5228 45 50 45H40C34.4772 45 30 40.5228 30 35V25C30 19.4772 34.4772 15 40 15Z" fill="#FF6B35"/>
  <path d="M40 20C37.2386 20 35 22.2386 35 25V35C35 37.7614 37.2386 40 40 40H50C52.7614 40 55 37.7614 55 35V25C55 22.2386 52.7614 20 50 20H40Z" fill="white"/>
  <path d="M42 28H48C48.5523 28 49 28.4477 49 29V31C49 31.5523 48.5523 32 48 32H42C41.4477 32 41 31.5523 41 31V29C41 28.4477 41.4477 28 42 28Z" fill="#FF6B35"/>
  <path d="M70 20H75C76.6569 20 78 21.3431 78 23V37C78 38.6569 76.6569 40 75 40H70C68.3431 40 67 38.6569 67 37V23C67 21.3431 68.3431 20 70 20Z" fill="#FF6B35"/>
  <path d="M82 20H87C88.6569 20 90 21.3431 90 23V37C90 38.6569 88.6569 40 87 40H82C80.3431 40 79 38.6569 79 37V23C79 21.3431 80.3431 20 82 20Z" fill="#FF6B35"/>
  <path d="M96 22C96 20.8954 96.8954 20 98 20H110C111.105 20 112 20.8954 112 22V23C112 24.1046 111.105 25 110 25H101V27.5H108C109.105 27.5 110 28.3954 110 29.5V30.5C110 31.6046 109.105 32.5 108 32.5H101V35H110C111.105 35 112 35.8954 112 37V38C112 39.1046 111.105 40 110 40H98C96.8954 40 96 39.1046 96 38V22Z" fill="#FF6B35"/>
  <path d="M121 22C121 20.8954 121.895 20 123 20H135C136.105 20 137 20.8954 137 22V23C137 24.1046 136.105 25 135 25H126V27.5H133C134.105 27.5 135 28.3954 135 29.5V30.5C135 31.6046 134.105 32.5 133 32.5H126V35H135C136.105 35 137 35.8954 137 37V38C137 39.1046 136.105 40 135 40H123C121.895 40 121 39.1046 121 38V22Z" fill="#333333"/>
  <text x="65" y="50" font-family="Arial" font-size="8" fill="#333333">BARBEQUE NATION</text>
</svg> 